<svg xmlns="http://www.w3.org/2000/svg" width="1024" height="1024" viewBox="0 0 1024 1024">
<g>
<path d="M 178.49 623.75 C178.16,624.70 172.58,625.00 155.09,625.00 C142.46,625.00 131.93,624.66 131.69,624.25 C131.46,623.84 131.65,619.90 132.11,615.50 C133.69,600.58 136.60,570.84 144.02,494.00 C145.11,482.73 147.10,462.25 148.45,448.50 C149.80,434.75 151.40,417.65 152.01,410.50 C152.63,403.35 153.53,394.35 154.03,390.50 C154.53,386.65 154.95,382.94 154.97,382.25 C154.99,381.27 163.95,381.00 196.35,381.00 L 237.70 381.00 L 238.88 394.25 C239.53,401.54 241.17,418.98 242.53,433.00 C243.89,447.02 245.69,465.70 246.53,474.50 C247.37,483.30 249.18,502.20 250.55,516.50 C251.92,530.80 253.96,552.17 255.08,564.00 C256.20,575.83 257.91,593.83 258.89,604.00 C260.03,615.88 260.32,622.95 259.71,623.75 C259.00,624.68 253.21,625.00 236.90,625.00 L 215.04 625.00 L 214.56 622.75 C214.30,621.51 213.56,613.30 212.93,604.50 C212.29,595.70 211.35,587.70 210.84,586.72 C210.00,585.13 208.46,584.97 195.70,585.22 L 181.50 585.50 L 180.20 604.00 C179.49,614.17 178.72,623.06 178.49,623.75 ZM 496.57 624.23 C489.60,626.10 466.38,627.44 459.50,626.37 C442.40,623.71 428.96,614.76 422.28,601.57 C413.69,584.61 412.82,576.06 413.24,511.94 C413.54,465.45 413.78,458.82 415.34,453.50 C422.88,427.82 442.88,414.80 475.00,414.65 C507.95,414.50 527.66,427.91 533.51,454.46 C534.77,460.17 535.01,467.45 534.78,493.00 L 534.50 524.50 L 463.00 525.03 L 463.01 550.26 C463.01,565.37 463.45,577.07 464.10,579.42 C466.48,588.00 474.43,591.60 480.49,586.83 C485.24,583.09 486.00,579.64 486.00,561.66 L 486.00 545.25 L 489.12 544.62 C493.88,543.67 532.31,543.91 533.87,544.90 C534.98,545.60 535.14,548.84 534.72,561.63 C534.11,579.86 532.46,588.39 527.55,598.74 C521.25,612.00 511.16,620.30 496.57,624.23 ZM 356.95 624.59 C349.28,626.72 328.22,627.29 319.50,625.60 C294.01,620.65 281.26,607.20 275.30,579.00 C273.71,571.48 273.50,564.92 273.53,522.00 C273.55,479.78 273.79,472.27 275.34,464.00 C280.61,435.87 291.38,422.66 313.50,417.18 C324.42,414.47 335.95,413.69 346.16,414.96 C367.42,417.60 383.67,427.23 391.28,441.70 C396.12,450.92 397.14,457.99 396.79,480.00 L 396.50 498.50 L 371.75 498.77 L 347.00 499.03 L 346.96 482.77 C346.93,473.82 346.52,464.49 346.05,462.03 C344.88,455.98 341.37,453.00 335.38,453.00 C329.76,453.00 327.50,454.18 325.26,458.28 C323.65,461.22 323.48,466.21 323.21,516.40 C322.89,576.14 323.15,579.81 327.96,584.96 C333.60,591.00 343.22,587.89 345.82,579.19 C346.55,576.76 347.00,567.79 347.00,555.63 L 347.00 536.00 L 397.00 536.00 L 396.98 557.25 C396.96,588.84 394.48,597.59 382.01,610.05 C374.99,617.07 366.72,621.87 356.95,624.59 ZM 185.61 546.18 C185.89,546.63 190.61,547.00 196.09,547.00 C204.13,547.00 206.18,546.70 206.65,545.46 C207.33,543.69 204.14,503.73 197.32,428.75 C196.90,424.04 196.30,422.00 195.35,422.00 C194.57,422.00 194.00,423.07 194.00,424.53 C194.00,425.92 193.32,435.93 192.49,446.78 C191.66,457.62 190.31,475.73 189.48,487.00 C188.66,498.27 187.33,516.02 186.54,526.43 C185.75,536.84 185.33,545.72 185.61,546.18 ZM 462.36 499.49 C462.87,500.82 464.73,501.02 474.23,500.78 L 485.50 500.50 L 485.77 483.09 C486.10,462.19 484.89,456.16 479.71,452.91 C475.97,450.57 470.88,450.91 467.74,453.71 C463.57,457.41 462.69,461.65 462.21,480.21 C461.96,489.95 462.03,498.62 462.36,499.49 Z" fill="rgb(1,1,1)"/>
<path d="M 951.77 263.19 C951.28,264.65 949.61,265.28 948.69,264.35 C947.38,263.05 948.01,262.00 950.08,262.00 C951.25,262.00 951.99,262.52 951.77,263.19 ZM 894.36 291.50 C894.05,292.33 893.16,293.00 892.39,293.00 C891.63,293.00 891.00,292.33 891.00,291.50 C891.00,290.67 891.89,290.00 892.97,290.00 C894.31,290.00 894.75,290.48 894.36,291.50 ZM 940.78 401.15 C940.54,401.89 939.53,402.66 938.55,402.85 C937.41,403.07 936.93,402.71 937.22,401.85 C937.46,401.11 938.47,400.34 939.45,400.15 C940.59,399.93 941.07,400.29 940.78,401.15 ZM 936.00 395.50 C936.00,396.33 935.33,397.00 934.50,397.00 C933.67,397.00 933.00,396.33 933.00,395.50 C933.00,394.67 933.67,394.00 934.50,394.00 C935.33,394.00 936.00,394.67 936.00,395.50 Z" fill="rgb(167,167,167)"/>
<path d="M 901.00 382.26 C901.00,384.25 900.57,386.15 900.04,386.47 C898.81,387.24 895.76,381.39 895.36,377.50 C894.12,365.49 892.65,361.39 888.87,359.43 C886.82,358.37 886.07,357.37 886.44,356.19 C887.24,353.67 883.61,348.41 879.12,345.57 C876.94,344.20 874.85,342.12 874.48,340.95 C873.96,339.31 873.31,338.98 871.65,339.50 C870.47,339.88 868.26,340.42 866.74,340.71 C863.02,341.41 862.63,342.38 864.53,346.06 C866.41,349.69 866.23,350.02 862.37,350.30 C859.51,350.50 859.50,350.49 859.74,345.00 C859.88,341.98 860.03,338.38 860.08,337.02 C860.14,335.63 859.37,333.99 858.34,333.31 C852.41,329.37 852.29,329.17 854.69,327.14 C855.90,326.11 858.82,324.97 861.19,324.59 C863.56,324.22 867.24,322.71 869.36,321.24 C872.78,318.88 874.06,318.60 880.46,318.79 C886.52,318.97 888.46,318.60 892.40,316.50 C897.81,313.63 901.83,313.35 906.09,315.55 C910.02,317.58 910.69,319.64 911.45,332.07 C911.80,337.81 912.58,344.19 913.20,346.25 C914.20,349.60 914.04,350.52 911.66,354.88 C910.20,357.57 909.00,360.62 909.00,361.65 C909.00,364.74 905.21,374.15 903.03,376.47 C901.76,377.82 901.00,379.99 901.00,382.26 Z" fill="rgb(168,36,40)"/>
<path d="M 925.91 395.61 C923.87,398.06 922.00,397.05 922.00,393.50 C922.00,392.31 921.70,391.03 921.33,390.66 C920.96,390.29 920.61,388.92 920.55,387.62 C920.46,385.65 920.72,385.44 922.12,386.31 C924.87,388.02 927.29,393.95 925.91,395.61 ZM 940.87 305.34 C941.71,306.36 941.44,307.14 939.74,308.64 C937.12,310.93 932.51,310.71 933.42,308.34 C933.74,307.51 934.00,306.20 934.00,305.42 C934.00,303.58 939.36,303.52 940.87,305.34 ZM 859.93 310.35 C859.70,310.56 856.35,311.02 852.50,311.38 C844.73,312.10 845.13,310.89 853.32,308.92 C856.85,308.08 858.46,308.06 859.26,308.86 C859.87,309.47 860.17,310.14 859.93,310.35 ZM 924.00 301.12 C924.00,302.28 921.89,302.22 920.00,301.00 C919.17,300.47 917.49,300.02 916.25,300.02 C913.26,299.99 913.37,298.20 916.41,297.43 C918.82,296.83 924.00,299.34 924.00,301.12 ZM 868.32 299.75 C868.55,300.16 868.47,301.26 868.12,302.18 C867.65,303.46 867.08,303.63 865.75,302.88 C863.40,301.56 863.52,299.00 865.94,299.00 C867.01,299.00 868.08,299.34 868.32,299.75 ZM 883.00 302.00 C882.17,302.53 880.38,302.97 879.00,302.97 C877.02,302.97 876.81,302.77 878.00,302.00 C878.83,301.47 880.62,301.03 882.00,301.03 C883.98,301.03 884.19,301.23 883.00,302.00 Z" fill="rgb(194,84,83)"/>
<path d="M 816.80 623.80 C814.97,625.63 771.65,625.49 770.13,623.65 C769.32,622.69 768.94,594.85 768.75,524.90 L 768.50 427.50 L 740.50 426.50 L 740.50 381.50 L 846.50 381.50 L 846.78 402.00 C846.94,413.27 846.82,423.51 846.51,424.75 C845.97,426.95 845.65,427.00 831.98,427.00 L 818.00 427.00 L 818.00 524.80 C818.00,599.53 817.72,622.88 816.80,623.80 ZM 775.04 621.13 C776.39,621.52 785.47,621.82 795.21,621.81 C809.98,621.79 813.14,621.53 814.21,620.24 C815.25,619.00 815.44,599.85 815.22,523.10 C815.05,463.71 815.30,426.96 815.89,426.07 C816.65,424.93 819.32,424.68 828.85,424.89 C829.48,424.90 830.09,424.92 830.67,424.93 C837.17,425.08 840.72,425.17 842.67,423.44 C845.02,421.35 845.01,416.61 845.00,406.13 C845.00,405.35 845.00,404.54 845.00,403.69 C845.00,390.40 844.67,385.94 843.59,384.46 C842.24,382.60 840.55,382.55 793.37,382.83 C760.83,383.02 744.13,383.48 743.28,384.18 C742.33,384.97 742.00,389.91 742.00,403.60 C742.00,421.95 742.00,421.95 744.44,423.55 C746.42,424.85 748.38,425.02 754.94,424.44 C760.36,423.97 764.46,424.15 767.45,424.99 L 771.90 426.23 L 771.64 520.87 C771.49,572.91 771.64,616.61 771.97,617.96 C772.33,619.44 773.56,620.71 775.04,621.13 ZM 662.43 623.43 C661.10,624.76 657.64,625.00 640.13,625.00 C625.34,625.00 619.06,624.66 618.20,623.80 C617.28,622.88 617.00,594.42 617.00,501.80 L 617.00 381.00 L 639.89 381.00 C659.85,381.00 662.86,381.20 663.39,382.58 C663.73,383.45 664.00,437.64 664.00,503.01 C664.00,609.72 663.84,622.02 662.43,623.43 ZM 726.80 623.80 C725.07,625.53 685.05,625.49 682.68,623.75 C681.10,622.58 681.00,614.40 681.24,502.00 L 681.50 381.50 L 728.00 380.96 L 728.00 501.78 C728.00,594.42 727.72,622.88 726.80,623.80 ZM 684.67 620.79 C686.25,621.75 723.18,621.64 724.75,620.66 C726.37,619.65 726.61,384.49 724.99,383.49 C724.14,382.97 697.32,382.87 687.50,383.35 L 684.50 383.50 L 683.74 392.50 C682.45,407.87 683.31,619.95 684.67,620.79 ZM 619.65 620.79 C620.29,621.18 629.70,621.50 640.57,621.49 L 660.34 621.49 L 660.38 502.79 C660.40,437.50 660.09,383.76 659.70,383.36 C659.30,382.97 650.36,382.67 639.82,382.69 C622.72,382.73 620.53,382.92 619.38,384.49 C618.37,385.87 618.15,394.51 618.37,424.38 C618.53,445.34 618.62,485.45 618.58,513.50 C618.42,617.60 618.44,620.04 619.65,620.79 ZM 597.88 623.64 C596.35,625.49 555.03,625.63 553.20,623.80 C551.75,622.35 551.59,616.00 553.00,616.00 C553.55,616.00 554.00,616.62 554.00,617.38 C554.00,620.74 556.80,621.26 575.59,621.39 C585.80,621.47 594.61,621.24 595.17,620.89 C596.35,620.16 596.37,384.97 595.19,383.79 C594.38,382.98 557.19,382.00 555.25,382.74 C554.56,383.00 554.00,383.84 554.00,384.61 C554.00,385.37 553.52,386.00 552.93,386.00 C552.34,386.00 552.00,384.99 552.18,383.75 L 552.50 381.50 L 598.50 381.50 L 598.75 501.89 C598.94,590.03 598.71,622.65 597.88,623.64 Z" fill="rgb(196,150,57)"/>
<path d="M 775.04 621.13 C773.56,620.71 772.33,619.44 771.97,617.96 C771.64,616.61 771.49,572.91 771.64,520.87 L 771.90 426.23 L 767.45 424.99 C764.46,424.15 760.36,423.97 754.94,424.44 C748.38,425.02 746.42,424.85 744.44,423.55 C742.00,421.95 742.00,421.95 742.00,403.60 C742.00,389.91 742.33,384.97 743.28,384.18 C744.13,383.48 760.83,383.02 793.37,382.83 C840.55,382.55 842.24,382.60 843.59,384.46 C844.67,385.94 845.00,390.40 845.00,403.69 C845.00,404.54 845.00,405.35 845.00,406.13 C845.01,416.61 845.02,421.35 842.67,423.44 C840.72,425.17 837.17,425.08 830.67,424.93 C830.09,424.92 829.48,424.90 828.85,424.89 C819.32,424.68 816.65,424.93 815.89,426.07 C815.30,426.96 815.05,463.71 815.22,523.10 C815.44,599.85 815.25,619.00 814.21,620.24 C813.14,621.53 809.98,621.79 795.21,621.81 C785.47,621.82 776.39,621.52 775.04,621.13 ZM 553.07 616.00 C552.74,598.69 552.50,554.27 552.50,502.00 L 552.50 385.78 C552.62,385.92 552.77,386.00 552.93,386.00 C553.52,386.00 554.00,385.37 554.00,384.61 C554.00,383.84 554.56,383.00 555.25,382.74 C557.19,382.00 594.38,382.98 595.19,383.79 C596.37,384.97 596.35,620.16 595.17,620.89 C594.61,621.24 585.80,621.47 575.59,621.39 C556.80,621.26 554.00,620.74 554.00,617.38 C554.00,616.65 553.59,616.05 553.07,616.00 ZM 684.67 620.79 C683.31,619.95 682.45,407.87 683.74,392.50 L 684.50 383.50 L 687.50 383.35 C697.32,382.87 724.14,382.97 724.99,383.49 C726.61,384.49 726.37,619.65 724.75,620.66 C723.18,621.64 686.25,621.75 684.67,620.79 ZM 619.65 620.79 C618.44,620.04 618.42,617.60 618.58,513.50 C618.62,485.45 618.53,445.34 618.37,424.38 C618.15,394.51 618.37,385.87 619.38,384.49 C620.53,382.92 622.72,382.73 639.82,382.69 C650.36,382.67 659.30,382.97 659.70,383.36 C660.09,383.76 660.40,437.50 660.38,502.79 L 660.34 621.49 L 640.57 621.49 C629.70,621.50 620.29,621.18 619.65,620.79 ZM 565.53 624.99 C578.41,625.34 596.85,624.86 597.88,623.64 C596.82,624.89 578.35,625.36 565.53,624.99 Z" fill="rgb(200,148,44)"/>
<path d="M 901.00 382.26 C901.00,379.99 901.76,377.82 903.03,376.47 C905.21,374.15 909.00,364.74 909.00,361.65 C909.00,360.62 910.20,357.57 911.66,354.88 C914.04,350.52 914.20,349.60 913.20,346.25 C912.58,344.19 911.80,337.81 911.45,332.07 C910.69,319.64 910.02,317.58 906.09,315.55 C901.83,313.35 897.81,313.63 892.40,316.50 C888.46,318.60 886.52,318.97 880.46,318.79 C874.06,318.60 872.78,318.88 869.36,321.24 C867.24,322.71 863.56,324.22 861.19,324.59 C858.82,324.97 855.90,326.11 854.69,327.14 C852.29,329.17 852.41,329.37 858.34,333.31 C859.37,333.99 860.14,335.63 860.08,337.02 C860.03,338.38 859.88,341.98 859.74,345.00 C859.50,350.49 859.51,350.50 862.37,350.30 C863.00,350.25 863.53,350.20 863.97,350.14 C862.50,350.84 860.91,351.06 859.95,350.47 C859.43,350.15 859.00,348.99 859.00,347.91 C859.00,346.82 858.31,345.67 857.47,345.35 C856.48,344.97 856.16,344.07 856.56,342.81 C857.90,338.59 856.26,336.34 850.19,334.07 C845.78,332.42 843.14,332.03 839.42,332.48 C833.63,333.19 830.93,332.00 832.90,329.61 C833.61,328.77 835.03,327.81 836.07,327.48 C837.11,327.15 840.51,325.34 843.63,323.47 C848.84,320.33 849.93,320.06 857.20,320.11 C866.31,320.17 868.40,319.11 867.48,314.90 C866.96,312.53 867.31,311.89 869.88,310.56 C871.54,309.70 874.17,309.00 875.73,309.00 C877.28,309.00 879.50,308.34 880.66,307.53 C881.96,306.61 884.82,306.11 888.20,306.20 C894.26,306.36 896.18,305.63 895.36,303.49 C895.05,302.70 895.41,301.45 896.15,300.70 C898.23,298.62 906.40,296.16 909.35,296.73 C912.50,297.33 912.83,298.97 909.96,299.72 C908.84,300.01 907.22,301.60 906.38,303.24 C904.94,306.02 904.54,306.18 900.80,305.58 C897.35,305.03 896.85,305.17 897.38,306.55 C897.72,307.44 898.00,308.58 898.00,309.10 C898.00,309.62 901.46,309.93 905.76,309.81 C910.02,309.68 914.04,309.91 914.69,310.31 C915.40,310.75 915.66,312.34 915.34,314.31 C914.94,316.78 915.53,318.82 917.79,322.64 C921.97,329.73 922.49,331.81 920.59,333.90 C919.71,334.87 919.03,336.75 919.07,338.08 C919.30,345.05 917.61,352.58 915.35,354.70 C913.70,356.25 913.00,358.01 913.00,360.63 C913.00,362.68 912.58,365.74 912.07,367.43 C909.57,375.67 909.32,377.97 910.22,383.93 L 911.16 390.16 L 907.22 393.83 C905.06,395.85 902.73,399.19 902.06,401.25 C901.04,404.40 900.40,405.00 898.04,405.00 C894.72,405.00 893.94,404.10 891.50,397.50 C889.34,391.67 889.12,379.16 891.16,377.90 C892.14,377.30 892.06,376.72 890.80,375.31 C889.57,373.94 889.31,372.30 889.73,368.59 C890.19,364.59 889.96,363.44 888.48,362.36 C887.15,361.39 886.31,361.33 885.34,362.13 C883.64,363.55 882.57,361.05 883.28,357.31 C883.96,353.78 880.74,348.97 875.79,346.12 C871.39,343.59 868.89,343.96 867.03,347.44 C866.72,348.02 866.25,348.56 865.69,349.04 C865.70,348.43 865.28,347.51 864.53,346.06 C862.63,342.38 863.02,341.41 866.74,340.71 C868.26,340.42 870.47,339.88 871.65,339.50 C873.31,338.98 873.96,339.31 874.48,340.95 C874.85,342.12 876.94,344.20 879.12,345.57 C883.61,348.41 887.24,353.67 886.44,356.19 C886.07,357.37 886.82,358.37 888.87,359.43 C892.65,361.39 894.12,365.49 895.36,377.50 C895.76,381.39 898.81,387.24 900.04,386.47 C900.57,386.15 901.00,384.25 901.00,382.26 ZM 861.00 315.99 C861.00,317.47 859.89,317.22 856.34,314.94 C854.31,313.64 852.94,313.29 852.53,313.96 C851.50,315.61 847.69,315.25 848.34,313.56 C848.66,312.72 848.19,311.96 847.19,311.73 C846.93,311.67 846.89,311.55 847.05,311.38 C847.52,311.65 849.33,311.67 852.50,311.38 C853.27,311.31 854.03,311.23 854.74,311.15 L 857.75 312.99 C859.54,314.08 861.00,315.43 861.00,315.99 ZM 856.03 311.01 C857.79,310.79 859.16,310.58 859.70,310.44 C859.24,310.77 858.31,311.00 857.25,311.00 ZM 567.74 625.04 C566.98,625.03 566.25,625.01 565.53,624.99 C566.25,625.01 566.99,625.03 567.74,625.04 C580.42,625.29 596.90,624.80 597.88,623.64 C596.89,624.82 580.36,625.30 567.74,625.04 ZM 860.00 310.00 C859.93,309.69 859.67,309.27 859.26,308.86 C859.12,308.72 858.94,308.60 858.73,308.50 C859.57,308.72 860.00,309.21 860.00,309.97 C860.00,309.98 860.00,309.99 860.00,310.00 Z" fill="rgb(205,51,51)"/>
<path d="M 924.00 301.12 C924.00,301.00 923.98,300.87 923.93,300.75 C924.96,301.50 925.90,302.00 926.35,302.00 C928.11,302.00 930.00,304.10 930.00,306.05 C930.00,306.95 930.75,309.20 931.67,311.03 C932.77,313.25 933.26,316.41 933.12,320.44 C932.83,328.46 932.57,329.13 928.59,331.70 C925.94,333.41 925.04,334.81 924.49,338.07 C923.73,342.54 924.90,344.31 927.91,343.26 C928.78,342.95 927.94,344.35 926.03,346.37 C923.38,349.18 922.56,350.92 922.53,353.77 C922.50,357.38 922.39,357.49 919.23,357.17 C916.22,356.87 915.96,357.07 916.00,359.67 C916.12,366.65 914.93,377.38 913.89,378.63 C912.35,380.49 914.20,382.61 919.52,385.12 C919.99,385.33 920.44,385.58 920.87,385.85 C920.56,385.97 920.50,386.52 920.55,387.62 C920.61,388.92 920.96,390.29 921.33,390.66 C921.70,391.03 922.00,392.31 922.00,393.50 C922.00,394.07 922.05,394.57 922.14,395.00 C922.03,394.62 921.98,394.18 921.97,393.69 C921.95,392.49 921.26,390.61 920.44,389.52 C918.64,387.14 916.60,388.08 913.41,392.76 C909.24,398.87 899.24,409.20 898.56,408.10 C898.19,407.50 896.56,407.00 894.94,407.00 C892.49,407.00 892.00,406.59 892.00,404.57 C892.00,403.23 891.51,400.86 890.92,399.32 C890.35,397.84 889.88,392.85 889.83,388.01 C890.03,391.47 890.59,395.07 891.50,397.50 C893.94,404.10 894.72,405.00 898.04,405.00 C900.40,405.00 901.04,404.40 902.06,401.25 C902.73,399.19 905.06,395.85 907.22,393.83 L 911.16 390.16 L 910.22 383.93 C909.32,377.97 909.57,375.67 912.07,367.43 C912.58,365.74 913.00,362.68 913.00,360.63 C913.00,358.01 913.70,356.25 915.35,354.70 C917.61,352.58 919.30,345.05 919.07,338.08 C919.03,336.75 919.71,334.87 920.59,333.90 C922.49,331.81 921.97,329.73 917.79,322.64 C915.53,318.82 914.94,316.78 915.34,314.31 C915.66,312.34 915.40,310.75 914.69,310.31 C914.04,309.91 910.02,309.68 905.76,309.81 C901.46,309.93 898.00,309.62 898.00,309.10 C898.00,308.58 897.72,307.44 897.38,306.55 C896.85,305.17 897.35,305.03 900.80,305.58 C904.54,306.18 904.94,306.02 906.38,303.24 C907.22,301.60 908.84,300.01 909.96,299.72 C912.41,299.08 912.53,297.79 910.56,297.06 C912.57,297.53 914.78,297.71 916.21,297.49 C913.37,298.27 913.33,300.00 916.25,300.02 C917.49,300.02 919.17,300.47 920.00,301.00 C921.89,302.22 924.00,302.28 924.00,301.12 ZM 859.93 310.35 C860.01,310.28 860.03,310.15 860.00,310.00 C860.00,309.99 860.00,309.98 860.00,309.97 C860.00,309.95 860.00,309.93 860.00,309.92 C860.05,309.98 860.10,310.05 860.16,310.12 C861.99,312.45 862.05,312.46 863.51,310.56 C864.33,309.49 865.00,308.03 865.00,307.31 C865.00,306.59 865.11,306.00 865.25,305.99 C865.39,305.99 868.81,304.86 872.85,303.49 C874.89,302.80 876.70,302.25 878.26,301.85 C878.16,301.90 878.08,301.95 878.00,302.00 C876.81,302.77 877.02,302.97 879.00,302.97 C880.38,302.97 882.17,302.53 883.00,302.00 C883.98,301.36 884.01,301.12 882.86,301.05 C884.26,301.00 885.00,301.32 885.00,302.00 C885.00,304.01 889.66,302.99 890.88,300.72 C891.76,299.09 893.90,297.97 898.40,296.78 C904.03,295.31 905.16,295.29 908.95,296.59 C909.08,296.64 909.22,296.68 909.35,296.73 C906.40,296.16 898.23,298.62 896.15,300.70 C895.41,301.45 895.05,302.70 895.36,303.49 C896.18,305.63 894.26,306.36 888.20,306.20 C884.82,306.11 881.96,306.61 880.66,307.53 C879.50,308.34 877.28,309.00 875.73,309.00 C874.17,309.00 871.54,309.70 869.88,310.56 C867.31,311.89 866.96,312.53 867.48,314.90 C868.40,319.11 866.31,320.17 857.20,320.11 C849.93,320.06 848.84,320.33 843.63,323.47 C840.51,325.34 837.11,327.15 836.07,327.48 C835.03,327.81 833.61,328.77 832.90,329.61 C830.93,332.00 833.63,333.19 839.42,332.48 C843.14,332.03 845.78,332.42 850.19,334.07 C856.26,336.34 857.90,338.59 856.56,342.81 C856.42,343.24 856.37,343.63 856.40,343.97 C856.03,343.51 855.67,342.99 855.40,342.50 C853.55,339.12 850.02,337.90 844.00,338.55 C840.01,338.98 837.67,338.71 835.50,337.58 C833.85,336.72 831.32,336.01 829.88,336.01 C828.43,336.00 825.84,335.72 824.12,335.38 C821.49,334.85 821.00,334.30 821.00,331.88 C821.00,330.29 821.44,329.00 821.97,329.00 C822.51,329.00 826.00,326.39 829.72,323.20 C833.45,320.01 837.86,316.85 839.53,316.17 C841.20,315.49 843.81,313.87 845.34,312.56 C845.76,312.19 846.34,311.81 847.01,311.42 C846.90,311.57 846.95,311.68 847.19,311.73 C848.19,311.96 848.66,312.72 848.34,313.56 C847.69,315.25 851.50,315.61 852.53,313.96 C852.94,313.29 854.31,313.64 856.34,314.94 C859.89,317.22 861.00,317.47 861.00,315.99 C861.00,315.43 859.54,314.08 857.75,312.99 L 854.74 311.15 C855.19,311.10 855.62,311.05 856.03,311.01 L 857.25 311.00 C858.31,311.00 859.24,310.77 859.70,310.44 C859.82,310.40 859.90,310.37 859.93,310.35 ZM 889.78 383.52 C889.66,378.99 889.21,377.60 887.97,376.47 C886.61,375.24 886.15,373.50 886.23,369.92 C886.31,366.51 885.80,364.44 884.55,363.06 C884.37,362.86 884.21,362.66 884.07,362.45 C884.42,362.62 884.86,362.53 885.34,362.13 C886.31,361.33 887.15,361.39 888.48,362.36 C889.96,363.44 890.19,364.59 889.73,368.59 C889.31,372.30 889.57,373.94 890.80,375.31 C892.06,376.72 892.14,377.30 891.16,377.90 C890.36,378.40 889.91,380.63 889.78,383.52 ZM 899.64 415.50 C898.87,417.49 897.37,417.40 896.57,415.32 C896.21,414.38 896.59,412.99 897.43,412.14 C898.76,410.81 899.00,410.83 899.57,412.32 C899.92,413.25 899.95,414.67 899.64,415.50 ZM 926.25 394.84 C926.50,393.62 925.97,391.65 925.05,389.87 C926.24,391.66 926.74,393.50 926.25,394.84 ZM 921.05 298.35 C919.74,297.72 918.23,297.30 917.08,297.34 C918.67,297.14 919.74,297.39 921.05,298.35 ZM 883.31 357.15 C883.41,355.43 882.95,353.67 881.99,352.01 C883.05,353.77 883.55,355.58 883.31,357.15 ZM 858.28 308.36 C857.32,308.15 855.82,308.33 853.41,308.90 C856.13,308.25 857.37,308.01 858.28,308.36 ZM 858.86 347.03 C858.95,347.32 859.00,347.62 859.00,347.91 C859.00,348.99 859.43,350.15 859.95,350.47 C859.43,350.15 859.00,349.03 859.00,347.99 C859.00,347.68 858.95,347.35 858.86,347.03 Z" fill="rgb(217,59,57)"/>
<path d="M 921.20 385.85 C921.07,385.81 920.96,385.81 920.87,385.85 C920.44,385.58 919.99,385.33 919.52,385.12 C914.20,382.61 912.35,380.49 913.89,378.63 C914.93,377.38 916.12,366.65 916.00,359.67 C915.96,357.07 916.22,356.87 919.23,357.17 C922.39,357.49 922.50,357.38 922.53,353.77 C922.56,350.92 923.38,349.18 926.03,346.37 C927.94,344.35 928.78,342.95 927.91,343.26 C924.90,344.31 923.73,342.54 924.49,338.07 C925.04,334.81 925.94,333.41 928.59,331.70 C930.65,330.36 931.72,329.54 932.30,327.94 C932.06,329.02 931.77,330.01 931.42,330.84 C929.76,334.81 929.58,338.62 931.00,339.50 C932.76,340.59 932.08,343.31 929.31,346.20 C927.83,347.75 926.52,350.31 926.41,351.89 C926.15,355.65 924.33,361.23 921.19,367.86 C917.74,375.14 917.34,382.31 920.22,384.99 C920.55,385.30 920.88,385.59 921.20,385.85 ZM 889.78 383.52 C889.72,384.91 889.74,386.44 889.83,388.01 C889.88,392.85 890.35,397.84 890.92,399.32 C891.51,400.86 892.00,403.23 892.00,404.57 C892.00,406.59 892.49,407.00 894.94,407.00 C896.56,407.00 898.19,407.50 898.56,408.10 C899.24,409.20 909.24,398.87 913.41,392.76 C916.60,388.08 918.64,387.14 920.44,389.52 C920.86,390.08 921.25,390.85 921.53,391.62 C921.19,390.95 920.70,390.37 920.15,390.08 C918.65,389.28 917.88,389.68 916.03,392.18 C914.77,393.87 913.64,396.65 913.50,398.35 C913.25,401.60 912.22,402.52 907.78,403.45 C904.38,404.17 903.04,406.61 901.99,414.04 C901.54,417.25 900.57,421.11 899.83,422.61 C898.13,426.12 896.83,426.50 894.12,424.28 C892.21,422.72 891.88,421.22 891.42,412.00 C891.13,406.23 890.54,398.35 890.11,394.50 C889.68,390.66 889.53,385.58 889.77,383.20 C889.78,383.31 889.78,383.41 889.78,383.52 ZM 847.19 310.89 C846.88,311.09 846.83,311.26 847.05,311.38 C847.03,311.39 847.02,311.41 847.01,311.42 C846.34,311.81 845.76,312.19 845.34,312.56 C843.81,313.87 841.20,315.49 839.53,316.17 C837.86,316.85 833.45,320.01 829.72,323.20 C826.00,326.39 822.51,329.00 821.97,329.00 C821.44,329.00 821.00,330.29 821.00,331.88 C821.00,334.30 821.49,334.85 824.12,335.38 C825.84,335.72 828.43,336.00 829.88,336.01 C831.32,336.01 833.85,336.72 835.50,337.58 C837.67,338.71 840.01,338.98 844.00,338.55 C849.76,337.93 853.24,339.02 855.16,342.08 C853.28,340.67 848.24,339.99 839.70,339.96 C832.57,339.93 827.05,339.39 824.50,338.47 C822.30,337.68 819.29,337.02 817.82,337.02 C816.06,337.01 814.92,336.34 814.53,335.09 C814.20,334.04 813.27,332.93 812.46,332.62 C811.66,332.32 811.00,331.18 811.00,330.10 C811.00,328.13 811.82,327.69 817.63,326.52 C819.35,326.18 822.25,324.79 824.07,323.45 C825.90,322.10 827.92,321.00 828.57,321.00 C829.22,321.00 830.30,320.34 830.97,319.53 C833.13,316.93 840.45,313.30 847.19,310.89 ZM 896.30 297.39 C893.20,298.36 891.61,299.37 890.88,300.72 C889.66,302.99 885.00,304.01 885.00,302.00 C885.00,301.35 884.33,301.03 883.06,301.05 C883.41,301.02 883.74,301.00 884.04,301.00 C886.12,301.00 888.30,300.34 889.00,299.50 C889.68,298.67 891.24,298.00 892.46,298.00 C893.20,298.00 894.66,297.76 896.30,297.39 ZM 899.64 415.50 C899.95,414.67 899.92,413.25 899.57,412.32 C899.00,410.83 898.76,410.81 897.43,412.14 C896.59,412.99 896.21,414.38 896.57,415.32 C897.37,417.40 898.87,417.49 899.64,415.50 ZM 865.03 306.72 C865.01,306.90 865.00,307.10 865.00,307.31 C865.00,308.03 864.33,309.49 863.51,310.56 C862.05,312.46 861.99,312.45 860.16,310.12 C860.10,310.05 860.05,309.98 860.00,309.92 C859.98,309.19 859.55,308.72 858.73,308.50 C858.62,308.46 858.50,308.42 858.38,308.38 C858.63,308.41 858.85,308.45 859.04,308.51 C860.24,308.89 862.32,308.35 864.27,307.16 C864.50,307.02 864.76,306.87 865.03,306.72 ZM 907.20 296.04 C905.07,295.46 903.62,295.51 900.50,296.26 C903.44,295.42 904.78,295.34 907.20,296.04 ZM 856.00 343.44 C856.13,343.62 856.26,343.80 856.40,343.97 C856.44,344.48 856.67,344.87 857.07,345.14 C856.45,344.75 856.00,344.11 856.00,343.55 C856.00,343.51 856.00,343.48 856.00,343.44 ZM 926.25 394.84 C926.45,394.31 926.48,393.69 926.38,393.03 C926.71,394.05 926.61,394.63 926.12,395.26 C926.18,395.13 926.22,394.99 926.25,394.84 ZM 924.11 388.31 C923.76,387.82 923.38,387.37 923.00,387.00 L 923.00 387.00 C923.19,387.00 923.61,387.51 924.11,388.31 ZM 886.22 368.45 C886.13,365.94 885.58,364.21 884.55,363.06 C885.61,364.23 886.14,365.89 886.22,368.45 ZM 910.56 297.06 C910.54,297.05 910.52,297.04 910.50,297.03 C912.56,297.51 914.79,297.70 916.21,297.49 C914.78,297.71 912.57,297.53 910.56,297.06 ZM 874.60 302.92 C874.03,303.10 873.45,303.29 872.85,303.49 C872.23,303.70 871.63,303.91 871.05,304.10 C872.21,303.68 873.40,303.28 874.60,302.92 ZM 888.45 376.98 C888.37,376.88 888.28,376.78 888.19,376.68 C888.28,376.78 888.37,376.87 888.45,376.98 ZM 884.07 362.45 L 884.07 362.45 C884.21,362.65 884.37,362.85 884.54,363.04 C884.36,362.85 884.21,362.65 884.07,362.45 Z" fill="rgb(227,65,70)"/>
<path d="M 889.80 433.75 C888.64,435.13 887.04,435.42 886.92,434.25 C886.88,433.84 886.70,432.76 886.53,431.86 C886.35,430.95 887.02,427.31 888.00,423.75 C889.57,418.10 890.19,403.62 889.89,392.13 C889.95,392.95 890.03,393.75 890.11,394.50 C890.54,398.35 891.13,406.23 891.42,412.00 C891.88,421.22 892.21,422.72 894.12,424.28 C896.83,426.50 898.13,426.12 899.83,422.61 C900.57,421.11 901.54,417.25 901.99,414.04 C903.04,406.61 904.38,404.17 907.78,403.45 C912.22,402.52 913.25,401.60 913.50,398.35 C913.64,396.65 914.77,393.87 916.03,392.18 C917.88,389.68 918.65,389.28 920.15,390.08 C920.70,390.37 921.19,390.95 921.53,391.62 C921.79,392.36 921.96,393.10 921.97,393.69 C921.98,394.18 922.03,394.62 922.14,395.00 L 922.15 395.05 C921.31,393.90 920.20,393.00 919.60,393.00 C917.63,393.00 915.00,396.88 915.00,399.79 C915.00,404.15 912.43,407.00 908.50,407.00 C904.35,407.00 903.75,407.90 902.85,415.50 C901.45,427.26 899.96,431.33 897.23,430.81 C896.33,430.63 895.32,429.37 895.00,427.99 C894.10,424.20 891.56,424.87 891.17,429.00 C890.99,430.92 890.37,433.06 889.80,433.75 ZM 921.20 385.85 C920.88,385.59 920.55,385.30 920.22,384.99 C917.34,382.31 917.74,375.14 921.19,367.86 C924.33,361.23 926.15,355.65 926.41,351.89 C926.52,350.31 927.83,347.75 929.31,346.20 C932.08,343.31 932.76,340.59 931.00,339.50 C929.58,338.62 929.76,334.81 931.42,330.84 C931.77,330.01 932.06,329.02 932.30,327.94 C932.85,326.46 932.98,324.30 933.12,320.44 C933.26,316.41 932.77,313.25 931.67,311.03 C930.75,309.20 930.00,306.95 930.00,306.05 C930.00,304.10 928.11,302.00 926.35,302.00 C925.90,302.00 924.96,301.50 923.93,300.75 C923.72,300.15 923.04,299.51 922.13,298.94 C923.47,299.56 925.32,300.00 926.75,300.00 C929.32,300.00 930.25,300.53 930.97,302.41 C931.69,304.31 932.23,304.69 934.75,304.43 C934.29,304.66 934.00,304.99 934.00,305.42 C934.00,306.20 933.74,307.51 933.42,308.34 C932.51,310.71 937.12,310.93 939.74,308.64 C941.27,307.29 941.64,306.52 941.09,305.64 C941.76,306.67 941.29,307.42 939.07,309.29 C937.42,310.68 935.52,311.99 934.85,312.22 C933.19,312.77 932.39,325.55 933.89,327.37 C934.73,328.38 934.61,329.68 933.41,332.56 C931.94,336.08 931.94,336.63 933.40,339.10 C935.68,342.95 935.42,344.35 931.80,347.89 C929.42,350.22 928.60,351.91 928.60,354.48 C928.60,356.40 928.02,358.16 927.30,358.44 C926.59,358.71 926.00,360.05 926.00,361.41 C926.00,362.77 925.54,364.16 924.98,364.51 C921.29,366.79 919.45,381.31 922.38,385.00 C923.02,385.79 924.27,388.07 925.23,390.15 C924.77,389.32 924.45,388.79 924.11,388.31 C923.61,387.51 923.19,387.00 923.00,387.00 L 923.00 387.00 C922.71,386.73 922.42,386.49 922.12,386.31 C921.73,386.06 921.43,385.91 921.20,385.85 ZM 847.19 310.89 C840.45,313.30 833.13,316.93 830.97,319.53 C830.30,320.34 829.22,321.00 828.57,321.00 C827.92,321.00 825.90,322.10 824.07,323.45 C822.25,324.79 819.35,326.18 817.63,326.52 C811.82,327.69 811.00,328.13 811.00,330.10 C811.00,331.18 811.66,332.32 812.46,332.62 C813.27,332.93 814.20,334.04 814.53,335.09 C814.92,336.34 816.06,337.01 817.82,337.02 C819.29,337.02 822.30,337.68 824.50,338.47 C827.05,339.39 832.57,339.93 839.70,339.96 C848.24,339.99 853.28,340.67 855.16,342.08 C855.24,342.22 855.32,342.36 855.40,342.50 C855.57,342.81 855.77,343.13 856.00,343.44 C856.00,343.48 856.00,343.51 856.00,343.55 C856.00,344.11 856.45,344.75 857.07,345.14 C857.19,345.22 857.32,345.29 857.47,345.35 C857.48,345.35 857.49,345.36 857.50,345.36 C857.25,345.43 856.95,345.63 856.56,345.95 C855.43,346.89 854.91,346.71 854.03,345.06 C853.30,343.69 851.94,343.00 849.96,343.00 C848.33,343.00 847.00,342.55 847.00,342.00 C847.00,341.39 842.65,341.00 835.96,341.00 C827.43,341.00 824.36,340.63 822.43,339.36 C819.93,337.72 817.29,337.77 806.50,339.64 C802.97,340.25 802.65,340.15 803.77,338.79 C804.47,337.94 806.83,336.96 809.02,336.61 C813.56,335.89 814.16,334.39 810.47,332.99 C807.66,331.92 806.24,329.36 807.66,327.94 C808.17,327.43 811.41,326.72 814.87,326.36 C819.75,325.85 821.46,325.22 822.56,323.55 C823.33,322.37 825.40,320.34 827.16,319.04 C830.45,316.61 839.87,312.94 847.69,310.62 C847.48,310.72 847.31,310.81 847.19,310.89 ZM 863.48 350.35 C863.65,350.29 863.81,350.22 863.97,350.14 C865.16,349.98 865.68,349.70 865.69,349.04 C866.25,348.56 866.72,348.02 867.03,347.44 C868.89,343.96 871.39,343.59 875.79,346.12 C876.99,346.81 878.09,347.62 879.06,348.50 C877.92,347.69 877.00,347.65 877.00,348.75 C877.00,349.16 874.64,349.53 871.75,349.58 C868.98,349.62 865.35,349.96 863.48,350.35 ZM 896.30 297.39 C895.97,297.46 895.65,297.53 895.34,297.59 C897.01,296.96 898.00,295.63 898.00,293.87 C898.00,291.86 902.21,290.12 902.80,291.89 C903.35,293.54 905.31,295.11 907.72,296.19 C907.54,296.14 907.37,296.09 907.20,296.04 C904.78,295.34 903.44,295.42 900.50,296.26 C899.88,296.40 899.18,296.58 898.40,296.78 C897.63,296.99 896.93,297.19 896.30,297.39 ZM 889.00 297.02 C889.00,298.22 885.00,298.29 883.14,297.11 C882.15,296.48 882.09,296.06 882.95,295.53 C884.44,294.61 889.00,295.73 889.00,297.02 ZM 888.45 376.98 C889.31,378.03 889.65,379.55 889.77,383.20 C889.69,384.05 889.65,385.25 889.66,386.61 C889.34,381.33 888.77,377.41 887.95,376.50 C887.88,376.42 887.81,376.34 887.74,376.25 C887.81,376.33 887.89,376.40 887.97,376.47 C888.04,376.54 888.12,376.61 888.19,376.68 C888.19,376.68 888.19,376.69 888.19,376.69 C888.28,376.78 888.37,376.88 888.45,376.98 ZM 858.86 347.03 C858.95,347.35 859.00,347.68 859.00,347.99 L 859.00 348.00 C858.82,347.42 858.63,346.83 858.49,346.39 C858.46,346.28 858.42,346.19 858.39,346.10 C858.59,346.37 858.75,346.69 858.86,347.03 ZM 859.47 308.61 C860.83,308.68 862.63,308.15 864.27,307.16 C862.54,308.22 860.69,308.77 859.47,308.61 ZM 938.98 304.27 C939.80,304.43 940.39,304.77 940.82,305.28 L 940.85 305.32 C940.44,304.84 939.76,304.49 938.98,304.27 ZM 926.46 394.69 C926.63,394.24 926.61,393.75 926.38,393.03 C926.37,392.93 926.35,392.83 926.33,392.74 C926.64,393.64 926.68,394.19 926.46,394.69 ZM 917.07 297.34 C916.83,297.35 916.61,297.38 916.41,297.43 C916.85,297.32 917.31,297.27 917.78,297.28 C917.55,297.29 917.32,297.31 917.08,297.34 ZM 921.05 298.35 C920.93,298.26 920.81,298.18 920.69,298.10 C920.85,298.20 921.01,298.30 921.17,298.41 L 921.19 298.42 C921.14,298.39 921.09,298.37 921.05,298.35 ZM 870.95 304.13 C872.14,303.70 873.37,303.29 874.60,302.92 C873.40,303.28 872.21,303.68 871.05,304.10 ZM 865.03 306.72 C864.78,306.86 864.54,306.99 864.32,307.13 C864.54,306.99 864.78,306.86 865.03,306.72 ZM 916.22 297.48 L 916.21 297.49 C916.19,297.49 916.16,297.49 916.14,297.50 C916.23,297.48 916.32,297.46 916.41,297.43 C916.34,297.45 916.28,297.47 916.22,297.48 Z" fill="rgb(203,88,90)"/>
<path d="M 889.80 433.75 C890.37,433.06 890.99,430.92 891.17,429.00 C891.56,424.87 894.10,424.20 895.00,427.99 C895.32,429.37 896.33,430.63 897.23,430.81 C899.96,431.33 901.45,427.26 902.85,415.50 C903.75,407.90 904.35,407.00 908.50,407.00 C912.43,407.00 915.00,404.15 915.00,399.79 C915.00,397.61 916.48,394.88 918.05,393.65 C916.84,394.80 915.89,397.25 916.09,399.30 C916.69,405.21 912.83,413.25 910.18,411.61 C909.65,411.29 908.81,411.58 908.29,412.26 C906.86,414.16 904.49,422.25 904.81,424.14 C904.97,425.06 903.72,428.04 902.05,430.77 C900.37,433.49 899.00,436.63 899.00,437.74 C899.00,438.85 898.44,440.21 897.75,440.77 C897.06,441.33 894.59,441.80 892.25,441.83 C888.98,441.86 887.75,441.41 886.92,439.84 C886.19,438.48 886.08,435.44 886.51,431.67 C886.51,431.74 886.52,431.80 886.53,431.86 C886.70,432.76 886.88,433.84 886.92,434.25 C887.04,435.42 888.64,435.13 889.80,433.75 ZM 834.17 315.43 C831.11,316.73 828.57,318.00 827.16,319.04 C825.40,320.34 823.33,322.37 822.56,323.55 C821.46,325.22 819.75,325.85 814.87,326.36 C811.41,326.72 808.17,327.43 807.66,327.94 C806.24,329.36 807.66,331.92 810.47,332.99 C814.16,334.39 813.56,335.89 809.02,336.61 C806.83,336.96 804.47,337.94 803.77,338.79 C802.65,340.15 802.97,340.25 806.50,339.64 C817.29,337.77 819.93,337.72 822.43,339.36 C824.36,340.63 827.43,341.00 835.96,341.00 C842.65,341.00 847.00,341.39 847.00,342.00 C847.00,342.55 848.33,343.00 849.96,343.00 C851.91,343.00 853.27,343.67 854.01,345.02 C852.59,343.16 851.10,343.00 833.17,342.69 C818.48,342.43 813.64,342.03 813.02,341.03 C812.21,339.73 807.04,339.98 801.25,341.60 C799.44,342.11 799.00,341.83 799.00,340.19 C799.00,338.85 799.75,338.03 801.17,337.82 C804.44,337.34 804.53,335.15 801.33,333.93 C798.60,332.89 798.57,332.80 800.44,331.43 C801.51,330.64 802.96,330.00 803.66,330.00 C804.36,330.00 805.39,329.14 805.96,328.08 C806.52,327.03 809.35,325.39 812.24,324.45 C815.13,323.51 817.95,322.38 818.50,321.96 C819.44,321.23 824.47,319.13 834.17,315.43 ZM 920.95 379.33 C920.73,373.65 922.40,366.10 924.98,364.51 C925.54,364.16 926.00,362.77 926.00,361.41 C926.00,360.05 926.59,358.71 927.30,358.44 C928.02,358.16 928.60,356.40 928.60,354.48 C928.60,353.09 928.84,351.97 929.43,350.86 C929.14,351.70 929.34,352.54 929.83,353.95 C930.75,356.57 930.52,357.80 928.29,362.26 C926.86,365.14 924.63,369.07 923.34,370.98 C922.02,372.95 921.15,376.39 920.95,379.33 ZM 889.63 410.39 C889.40,409.35 889.03,408.45 888.51,407.66 C887.07,405.46 887.26,400.66 889.49,384.23 C889.55,384.98 889.61,385.78 889.66,386.61 C889.67,388.31 889.75,390.27 889.89,392.13 C890.04,397.96 889.96,404.56 889.63,410.39 ZM 884.07 362.45 C884.21,362.65 884.36,362.85 884.54,363.04 L 884.55 363.06 C885.02,363.58 885.39,364.23 885.66,365.01 C885.27,364.03 884.63,363.18 883.66,362.17 C881.94,360.37 881.00,358.29 881.00,356.26 C881.00,352.43 878.10,350.08 873.28,349.52 C875.43,349.40 877.00,349.09 877.00,348.75 C877.00,347.65 877.92,347.69 879.06,348.50 C880.26,349.59 881.26,350.79 881.99,352.01 C882.95,353.67 883.41,355.43 883.31,357.15 C883.30,357.20 883.29,357.26 883.28,357.31 C882.77,359.98 883.17,362.02 884.07,362.45 ZM 905.82 268.25 C905.62,269.65 904.70,270.61 903.38,270.80 C900.68,271.19 899.38,268.19 901.39,266.19 C903.42,264.15 906.22,265.45 905.82,268.25 ZM 894.36 291.50 C894.55,291.01 894.54,290.65 894.35,290.40 C895.01,290.45 895.81,290.53 896.75,290.64 C898.20,290.81 899.57,291.05 900.64,291.30 C899.36,291.67 898.00,292.73 898.00,293.87 C898.00,295.63 897.01,296.96 895.34,297.59 C895.22,297.62 895.10,297.64 894.98,297.67 C896.99,296.97 898.33,295.34 897.53,294.04 C897.17,293.47 895.56,293.00 893.94,293.00 C893.53,293.00 893.16,292.98 892.83,292.93 C893.47,292.74 894.10,292.17 894.36,291.50 ZM 975.00 328.00 C975.00,329.93 973.04,330.71 971.67,329.33 C970.29,327.96 971.07,326.00 973.00,326.00 C974.33,326.00 975.00,326.67 975.00,328.00 ZM 892.00 430.06 C892.00,431.84 892.42,432.86 893.00,432.50 C893.55,432.16 894.00,430.78 894.00,429.44 C894.00,428.10 893.55,427.00 893.00,427.00 C892.45,427.00 892.00,428.38 892.00,430.06 ZM 890.00 462.44 C890.00,464.11 888.57,465.24 887.64,464.31 C886.44,463.11 886.99,461.00 888.50,461.00 C889.33,461.00 890.00,461.65 890.00,462.44 ZM 924.44 388.51 C923.66,386.98 922.85,385.59 922.38,385.00 C922.28,384.87 922.19,384.74 922.10,384.59 C922.60,385.06 923.53,386.64 924.44,388.51 ZM 919.49 393.00 C919.53,393.00 919.56,393.00 919.60,393.00 C920.20,393.00 921.31,393.90 922.14,395.05 C921.34,393.95 920.20,393.07 919.49,393.00 ZM 855.90 346.40 C856.09,346.31 856.31,346.16 856.56,345.95 C856.72,345.82 856.87,345.70 857.00,345.61 C856.92,345.68 856.83,345.77 856.74,345.86 C856.44,346.16 856.17,346.35 855.90,346.40 ZM 887.67 425.01 C887.87,424.14 888.09,423.27 888.33,422.39 C888.22,422.88 888.12,423.34 888.00,423.75 C887.88,424.17 887.77,424.59 887.67,425.01 ZM 858.49 346.39 C858.63,346.83 858.82,347.42 859.00,348.00 C858.81,347.40 858.62,346.80 858.47,346.33 C858.44,346.25 858.42,346.17 858.39,346.10 C858.42,346.19 858.46,346.28 858.49,346.39 ZM 907.18 295.94 C907.38,296.03 907.58,296.12 907.78,296.21 L 907.72 296.19 C907.54,296.11 907.36,296.02 907.18,295.94 Z" fill="rgb(224,137,140)"/>
<path d="M 925.91 395.61 C926.00,395.50 926.07,395.39 926.12,395.26 C926.13,395.24 926.15,395.23 926.16,395.21 C925.74,396.92 924.49,399.17 922.09,403.50 C920.33,406.68 918.74,408.40 917.74,408.22 C916.65,408.03 915.55,409.57 914.20,413.21 C912.75,417.09 911.61,418.62 909.87,419.03 C907.70,419.54 907.41,420.37 906.35,428.95 C905.54,435.57 904.74,438.57 903.61,439.20 C900.93,440.70 899.89,443.59 901.00,446.50 C902.87,451.43 898.86,455.21 896.23,451.00 C894.28,447.88 892.17,448.57 891.42,452.57 C890.62,456.83 892.09,459.00 894.44,457.05 C896.11,455.66 899.00,456.28 899.00,458.02 C899.00,458.62 897.69,459.56 896.08,460.12 C893.41,461.05 890.00,465.96 890.00,468.87 C890.00,469.45 889.10,470.41 887.99,471.01 C884.83,472.70 883.77,468.43 884.59,457.26 C885.08,450.70 884.90,446.73 884.02,444.05 C883.09,441.24 883.02,439.18 883.77,436.36 L 884.79 432.50 L 884.90 436.10 C885.02,440.44 887.62,446.00 889.52,446.00 C890.28,446.00 891.33,445.23 891.85,444.30 C892.66,442.85 893.05,442.80 894.43,443.94 C895.32,444.68 896.17,445.11 896.33,444.89 C898.57,441.73 900.00,438.68 900.00,437.06 C900.00,435.95 901.10,434.33 902.44,433.45 C904.38,432.17 905.00,430.71 905.49,426.18 C906.25,419.14 908.27,414.36 910.85,413.55 C911.93,413.20 913.09,412.20 913.43,411.32 C913.92,410.05 913.79,409.94 912.68,410.85 C914.71,408.71 916.52,403.48 916.09,399.30 C915.89,397.25 916.84,394.80 918.05,393.65 C918.54,393.27 919.03,393.04 919.49,393.00 C920.20,393.07 921.34,393.95 922.14,395.05 C922.07,394.94 921.99,394.84 921.91,394.74 C921.99,394.84 922.07,394.94 922.15,395.05 C922.62,397.29 924.21,397.66 925.91,395.61 ZM 800.88 337.17 C800.00,337.76 799.97,337.97 800.87,337.88 C799.65,338.15 799.00,338.95 799.00,340.19 C799.00,340.27 799.00,340.34 799.00,340.42 C798.20,339.11 798.03,336.88 798.01,332.87 C798.01,330.05 798.56,327.78 799.44,327.05 C800.23,326.40 804.57,325.21 809.09,324.43 C812.55,323.82 815.82,323.06 817.43,322.52 C816.23,323.05 814.25,323.79 812.24,324.45 C809.35,325.39 806.52,327.03 805.96,328.08 C805.39,329.14 804.36,330.00 803.66,330.00 C802.96,330.00 801.51,330.64 800.44,331.43 C798.57,332.80 798.60,332.89 801.33,333.93 C801.48,333.99 801.62,334.05 801.76,334.11 C801.16,333.99 801.06,334.29 801.49,334.98 C801.92,335.69 801.66,336.63 800.88,337.17 ZM 886.02 482.41 C884.93,487.25 880.42,492.27 879.45,489.73 C879.10,488.83 879.54,487.07 880.41,485.82 C881.28,484.58 882.00,482.79 882.00,481.85 C882.00,479.68 885.01,476.61 886.09,477.69 C886.53,478.13 886.51,480.26 886.02,482.41 ZM 916.54 399.89 C916.26,402.10 916.56,403.00 917.57,403.00 C919.33,403.00 919.47,400.36 917.75,399.65 C917.06,399.36 917.62,399.21 918.98,399.31 C920.89,399.46 921.49,398.99 921.59,397.30 C921.75,394.69 919.60,393.57 918.04,395.45 C917.43,396.19 916.76,398.18 916.54,399.89 ZM 890.00 462.44 C890.00,461.65 889.33,461.00 888.50,461.00 C888.44,461.00 888.39,461.00 888.33,461.01 C889.04,460.85 889.91,461.15 890.34,462.02 C890.62,462.59 890.74,462.48 890.60,461.77 C890.46,461.07 889.37,460.36 888.17,460.18 C886.37,459.92 886.00,460.35 886.00,462.76 C886.00,464.36 886.31,465.98 886.69,466.35 C887.62,467.29 889.29,466.64 889.78,465.16 C889.95,464.64 889.76,464.27 889.34,464.20 C889.72,463.80 890.00,463.17 890.00,462.44 ZM 896.00 297.20 C895.69,297.38 895.35,297.54 894.98,297.67 C893.90,297.87 893.00,298.00 892.46,298.00 C891.24,298.00 889.68,298.67 889.00,299.50 C888.30,300.34 886.12,301.00 884.04,301.00 C883.74,301.00 883.41,301.02 883.06,301.05 C882.99,301.05 882.93,301.05 882.86,301.05 C882.62,301.04 882.34,301.03 882.00,301.03 C881.87,301.03 881.73,301.03 881.59,301.04 C883.10,300.64 883.76,300.36 883.85,299.95 C883.92,299.57 883.48,299.08 882.76,298.28 L 882.59 298.10 C880.93,296.27 880.95,296.15 882.93,295.52 C882.95,295.52 882.98,295.51 883.00,295.50 C882.98,295.51 882.97,295.52 882.95,295.53 C882.09,296.06 882.15,296.48 883.14,297.11 C884.99,298.28 888.95,298.22 889.00,297.04 C889.00,297.05 889.00,297.06 889.00,297.07 C889.00,298.34 893.73,298.22 896.00,297.20 ZM 800.67 341.75 C800.84,341.71 801.04,341.66 801.25,341.60 C803.24,341.04 805.16,340.65 806.86,340.42 C806.91,340.50 807.26,340.60 807.91,340.73 C809.24,340.98 811.03,341.89 811.89,342.75 C813.32,344.18 813.19,344.25 810.48,343.57 C808.84,343.16 805.63,342.60 803.34,342.32 C802.24,342.18 801.37,342.02 800.67,341.75 ZM 881.00 487.21 C881.00,487.82 881.90,487.50 883.00,486.50 C885.01,484.68 885.92,478.31 884.00,479.50 C883.45,479.84 883.00,481.19 883.00,482.50 C883.00,483.81 882.55,485.16 882.00,485.50 C881.45,485.84 881.00,486.61 881.00,487.21 ZM 939.00 327.00 C939.00,327.55 938.33,328.00 937.50,328.00 C936.67,328.00 936.00,327.55 936.00,327.00 C936.00,326.45 936.67,326.00 937.50,326.00 C938.33,326.00 939.00,326.45 939.00,327.00 ZM 859.04 308.51 C860.14,308.54 862.15,308.00 864.37,307.10 L 864.32 307.13 L 864.26 307.16 C862.63,308.15 860.83,308.68 859.47,308.61 C859.31,308.59 859.17,308.55 859.04,308.51 ZM 803.34 335.24 C804.03,336.12 803.67,337.05 802.29,337.55 C803.30,337.07 803.69,336.06 803.34,335.24 ZM 896.46 293.38 C896.98,293.56 897.37,293.79 897.53,294.04 C897.93,294.70 897.79,295.45 897.28,296.11 C898.08,294.88 897.74,293.90 896.46,293.38 ZM 885.97 295.33 C887.37,295.51 888.59,296.04 888.92,296.71 C888.58,296.10 887.30,295.57 885.97,295.33 ZM 898.32 440.08 C898.72,439.42 899.00,438.52 899.00,437.74 C899.00,438.71 898.79,439.48 898.32,440.08 ZM 878.26 301.85 L 878.26 301.85 C877.16,302.13 875.94,302.49 874.60,302.92 C874.44,302.96 874.29,303.01 874.13,303.06 C875.57,302.57 876.92,302.17 878.00,301.91 ZM 896.23 441.37 C895.22,441.67 893.91,441.81 892.25,441.83 C893.67,441.81 895.14,441.63 896.23,441.37 ZM 829.82 317.10 C826.64,318.34 824.15,319.34 822.31,320.12 C823.16,319.75 824.08,319.36 825.00,319.00 C826.67,318.33 828.28,317.70 829.82,317.10 ZM 813.30 341.29 C813.73,341.55 814.56,341.77 815.94,341.95 C814.42,341.76 813.57,341.55 813.30,341.29 ZM 924.44 388.51 C923.53,386.64 922.60,385.06 922.10,384.59 C922.62,385.07 923.60,386.74 924.51,388.66 Z" fill="rgb(234,219,205)"/>
<path d="M 887.67 425.01 C886.92,427.92 886.44,430.66 886.51,431.67 C886.08,435.44 886.19,438.48 886.92,439.84 C887.75,441.41 888.98,441.86 892.25,441.83 C893.67,441.81 895.14,441.63 896.23,441.37 C896.94,441.19 897.48,440.99 897.75,440.77 C897.95,440.60 898.15,440.37 898.32,440.08 C898.79,439.48 899.00,438.71 899.00,437.74 C899.00,436.63 900.37,433.49 902.05,430.77 C903.72,428.04 904.97,425.06 904.81,424.14 C904.49,422.25 906.86,414.16 908.29,412.26 C908.81,411.58 909.65,411.29 910.18,411.61 C910.96,412.09 911.84,411.74 912.68,410.85 C913.79,409.94 913.92,410.05 913.43,411.32 C913.09,412.20 911.93,413.20 910.85,413.55 C908.27,414.36 906.25,419.14 905.49,426.18 C905.00,430.71 904.38,432.17 902.44,433.45 C901.10,434.33 900.00,435.95 900.00,437.06 C900.00,438.68 898.57,441.73 896.33,444.89 C896.17,445.11 895.32,444.68 894.43,443.94 C893.05,442.80 892.66,442.85 891.85,444.30 C891.33,445.23 890.28,446.00 889.52,446.00 C887.62,446.00 885.02,440.44 884.90,436.10 L 884.81 432.97 C885.37,431.22 886.11,429.11 887.05,426.50 C887.40,425.50 887.73,424.51 888.02,423.55 C887.90,424.04 887.78,424.53 887.67,425.01 ZM 813.30 341.29 C813.57,341.55 814.42,341.76 815.94,341.95 C818.83,342.32 824.14,342.53 833.17,342.69 C837.48,342.76 840.84,342.83 843.48,342.91 C840.81,342.92 837.37,342.96 832.90,343.03 C821.66,343.19 816.06,343.27 812.31,343.17 C812.19,343.05 812.05,342.91 811.89,342.75 C811.03,341.89 809.24,340.98 807.91,340.73 C807.26,340.60 806.91,340.50 806.86,340.42 C810.08,339.99 812.49,340.17 813.02,341.03 C813.07,341.12 813.17,341.21 813.30,341.29 ZM 890.60 461.77 C890.74,462.48 890.62,462.59 890.34,462.02 C889.91,461.15 889.04,460.85 888.33,461.01 C886.95,461.16 886.49,463.16 887.64,464.31 C888.16,464.83 888.84,464.70 889.34,464.20 C889.76,464.27 889.95,464.64 889.78,465.16 C889.29,466.64 887.62,467.29 886.69,466.35 C886.31,465.98 886.00,464.36 886.00,462.76 C886.00,460.35 886.37,459.92 888.17,460.18 C889.37,460.36 890.46,461.07 890.60,461.77 ZM 881.00 487.21 C881.00,486.61 881.45,485.84 882.00,485.50 C882.55,485.16 883.00,483.81 883.00,482.50 C883.00,481.19 883.45,479.84 884.00,479.50 C885.92,478.31 885.01,484.68 883.00,486.50 C881.90,487.50 881.00,487.82 881.00,487.21 ZM 892.00 430.06 C892.00,428.38 892.45,427.00 893.00,427.00 C893.55,427.00 894.00,428.10 894.00,429.44 C894.00,430.78 893.55,432.16 893.00,432.50 C892.42,432.86 892.00,431.84 892.00,430.06 ZM 916.54 399.89 C916.63,399.14 916.82,398.33 917.05,397.60 C917.07,398.32 917.43,398.95 918.13,399.28 C917.42,399.29 917.23,399.43 917.75,399.65 C919.47,400.36 919.33,403.00 917.57,403.00 C916.56,403.00 916.26,402.10 916.54,399.89 ZM 800.88 337.17 C801.66,336.63 801.92,335.69 801.49,334.98 C801.06,334.29 801.16,333.99 801.76,334.11 C802.50,334.44 803.03,334.84 803.34,335.24 C803.69,336.06 803.30,337.07 802.29,337.55 C801.97,337.67 801.60,337.76 801.17,337.82 C801.07,337.83 800.97,337.85 800.87,337.88 C799.97,337.97 800.00,337.76 800.88,337.17 ZM 921.43 398.29 C921.49,398.03 921.53,397.74 921.53,397.41 C921.58,394.98 919.96,393.84 918.33,395.14 C919.86,393.71 921.74,394.85 921.59,397.30 C921.57,397.69 921.52,398.02 921.43,398.29 ZM 801.34 341.96 C801.91,342.12 802.57,342.22 803.34,342.32 C804.24,342.43 805.28,342.58 806.31,342.75 C805.55,342.66 804.75,342.56 803.84,342.43 C802.85,342.30 802.02,342.16 801.34,341.96 ZM 887.59 403.36 C887.51,399.97 888.11,394.36 889.49,384.23 C888.13,394.25 887.53,399.95 887.59,403.36 ZM 883.27 440.27 C883.31,441.45 883.56,442.64 884.00,444.01 C883.56,442.65 883.29,441.54 883.27,440.27 ZM 889.63 410.39 L 889.62 410.59 C889.52,409.99 889.38,409.45 889.19,408.97 C889.37,409.41 889.52,409.89 889.63,410.39 Z" fill="rgb(223,195,156)"/>
<path d="M 0.00 512.00 L 0.00 0.00 L 512.00 0.00 L 1024.00 0.00 L 1024.00 512.00 L 1024.00 1024.00 L 512.00 1024.00 L 0.00 1024.00 L 0.00 512.00 ZM 356.95 624.59 C366.72,621.87 374.99,617.07 382.01,610.05 C394.48,597.59 396.96,588.84 396.98,557.25 L 397.00 536.00 L 372.00 536.00 L 347.00 536.00 L 347.00 555.63 C347.00,567.79 346.55,576.76 345.82,579.19 C343.22,587.89 333.60,591.00 327.96,584.96 C323.15,579.81 322.89,576.14 323.21,516.40 C323.48,466.21 323.65,461.22 325.26,458.28 C327.50,454.18 329.76,453.00 335.38,453.00 C341.37,453.00 344.88,455.98 346.05,462.03 C346.52,464.49 346.93,473.82 346.96,482.77 L 347.00 499.03 L 371.75 498.77 L 396.50 498.50 L 396.79 480.00 C397.14,457.99 396.12,450.92 391.28,441.70 C383.67,427.23 367.42,417.60 346.16,414.96 C335.95,413.69 324.42,414.47 313.50,417.18 C291.38,422.66 280.61,435.87 275.34,464.00 C273.79,472.27 273.55,479.78 273.53,522.00 C273.50,564.92 273.71,571.48 275.30,579.00 C281.26,607.20 294.01,620.65 319.50,625.60 C328.22,627.29 349.28,626.72 356.95,624.59 ZM 496.57 624.23 C511.16,620.30 521.25,612.00 527.55,598.74 C532.46,588.39 534.11,579.86 534.72,561.63 C535.14,548.84 534.98,545.60 533.87,544.90 C532.31,543.91 493.88,543.67 489.12,544.62 L 486.00 545.25 L 486.00 561.66 C486.00,579.64 485.24,583.09 480.49,586.83 C474.43,591.60 466.48,588.00 464.10,579.42 C463.45,577.07 463.01,565.37 463.01,550.26 L 463.00 525.03 L 498.75 524.76 L 534.50 524.50 L 534.78 493.00 C535.01,467.45 534.77,460.17 533.51,454.46 C527.66,427.91 507.95,414.50 475.00,414.65 C442.88,414.80 422.88,427.82 415.34,453.50 C413.78,458.82 413.54,465.45 413.24,511.94 C412.82,576.06 413.69,584.61 422.28,601.57 C428.96,614.76 442.40,623.71 459.50,626.37 C466.38,627.44 489.60,626.10 496.57,624.23 ZM 178.49 623.75 C178.72,623.06 179.49,614.17 180.20,604.00 L 181.50 585.50 L 195.70 585.22 C208.46,584.97 210.00,585.13 210.84,586.72 C211.35,587.70 212.29,595.70 212.93,604.50 C213.56,613.30 214.30,621.51 214.56,622.75 L 215.04 625.00 L 236.90 625.00 C253.21,625.00 259.00,624.68 259.71,623.75 C260.32,622.95 260.03,615.88 258.89,604.00 C257.91,593.83 256.20,575.83 255.08,564.00 C253.96,552.17 251.92,530.80 250.55,516.50 C249.18,502.20 247.37,483.30 246.53,474.50 C245.69,465.70 243.89,447.02 242.53,433.00 C241.17,418.98 239.53,401.54 238.88,394.25 L 237.70 381.00 L 196.35 381.00 C163.95,381.00 154.99,381.27 154.97,382.25 C154.95,382.94 154.53,386.65 154.03,390.50 C153.53,394.35 152.63,403.35 152.01,410.50 C151.40,417.65 149.80,434.75 148.45,448.50 C147.10,462.25 145.11,482.73 144.02,494.00 C136.60,570.84 133.69,600.58 132.11,615.50 C131.65,619.90 131.46,623.84 131.69,624.25 C131.93,624.66 142.46,625.00 155.09,625.00 C172.58,625.00 178.16,624.70 178.49,623.75 ZM 597.88 623.64 C598.71,622.65 598.94,590.03 598.75,501.89 L 598.50 381.50 L 575.50 381.50 L 552.50 381.50 L 552.50 502.00 C552.50,568.97 552.89,623.06 553.37,623.75 C554.69,625.64 596.31,625.53 597.88,623.64 ZM 662.43 623.43 C663.84,622.02 664.00,609.72 664.00,503.01 C664.00,437.64 663.73,383.45 663.39,382.58 C662.86,381.20 659.85,381.00 639.89,381.00 L 617.00 381.00 L 617.00 501.80 C617.00,594.42 617.28,622.88 618.20,623.80 C619.06,624.66 625.34,625.00 640.13,625.00 C657.64,625.00 661.10,624.76 662.43,623.43 ZM 726.80 623.80 C727.72,622.88 728.00,594.42 728.00,501.78 L 728.00 380.96 L 704.75 381.23 L 681.50 381.50 L 681.24 502.00 C681.00,614.40 681.10,622.58 682.68,623.75 C685.05,625.49 725.07,625.53 726.80,623.80 ZM 816.80 623.80 C817.72,622.88 818.00,599.53 818.00,524.80 L 818.00 427.00 L 831.98 427.00 C845.65,427.00 845.97,426.95 846.51,424.75 C846.82,423.51 846.94,413.27 846.78,402.00 L 846.50 381.50 L 793.50 381.50 L 740.50 381.50 L 740.50 404.00 L 740.50 426.50 L 754.50 427.00 L 768.50 427.50 L 768.75 524.90 C768.94,594.85 769.32,622.69 770.13,623.65 C771.65,625.49 814.97,625.63 816.80,623.80 ZM 886.02 482.41 C886.51,480.26 886.53,478.13 886.09,477.69 C885.01,476.61 882.00,479.68 882.00,481.85 C882.00,482.79 881.28,484.58 880.41,485.82 C879.54,487.07 879.10,488.83 879.45,489.73 C880.42,492.27 884.93,487.25 886.02,482.41 ZM 890.00 468.87 C890.00,465.96 893.41,461.05 896.08,460.12 C897.69,459.56 899.00,458.62 899.00,458.02 C899.00,456.28 896.11,455.66 894.44,457.05 C892.09,459.00 890.62,456.83 891.42,452.57 C892.17,448.57 894.28,447.88 896.23,451.00 C898.86,455.21 902.87,451.43 901.00,446.50 C899.89,443.59 900.93,440.70 903.61,439.20 C904.74,438.57 905.54,435.57 906.35,428.95 C907.41,420.37 907.70,419.54 909.87,419.03 C911.61,418.62 912.75,417.09 914.20,413.21 C915.55,409.57 916.65,408.03 917.74,408.22 C918.74,408.40 920.33,406.68 922.09,403.50 C927.11,394.44 927.10,394.49 924.93,389.58 C923.84,387.11 922.51,384.81 921.97,384.48 C920.02,383.28 920.90,374.62 923.34,370.98 C924.63,369.07 926.86,365.14 928.29,362.26 C930.52,357.80 930.75,356.57 929.83,353.95 C928.85,351.14 929.04,350.59 931.88,347.81 C935.42,344.35 935.67,342.94 933.40,339.10 C931.94,336.63 931.94,336.08 933.41,332.56 C934.61,329.68 934.73,328.38 933.89,327.37 C932.39,325.55 933.19,312.77 934.85,312.22 C935.52,311.99 937.42,310.68 939.07,309.29 C941.54,307.21 941.84,306.51 940.82,305.28 C939.95,304.24 938.43,303.95 935.73,304.31 C932.35,304.76 931.77,304.53 930.97,302.41 C930.25,300.53 929.32,300.00 926.75,300.00 C924.93,300.00 922.42,299.28 921.17,298.41 C919.75,297.41 917.96,297.05 916.41,297.43 C911.94,298.55 904.16,295.53 902.84,292.17 C902.65,291.69 899.91,291.01 896.75,290.64 C892.00,290.10 891.00,290.24 891.00,291.49 C891.00,292.49 891.99,293.00 893.94,293.00 C897.39,293.00 898.67,294.49 896.96,296.54 C895.64,298.14 889.00,298.57 889.00,297.07 C889.00,295.70 885.32,294.76 882.93,295.52 C880.95,296.15 880.93,296.27 882.59,298.10 C884.68,300.41 884.82,300.30 878.00,301.91 C874.97,302.63 869.85,304.51 866.62,306.09 C863.25,307.74 859.83,308.75 858.62,308.46 C855.65,307.75 844.77,311.16 825.00,319.00 C821.97,320.20 819.01,321.59 818.40,322.08 C817.80,322.58 813.61,323.64 809.09,324.43 C804.57,325.21 800.23,326.40 799.44,327.05 C798.56,327.78 798.01,330.05 798.01,332.87 C798.04,340.79 798.61,341.74 803.84,342.43 C810.51,343.32 811.45,343.34 832.90,343.03 C851.76,342.75 852.34,342.80 853.92,344.90 C855.18,346.57 855.82,346.78 856.74,345.86 C857.67,344.93 858.05,345.04 858.47,346.33 C858.76,347.25 859.23,348.72 859.51,349.61 C859.89,350.81 860.71,351.04 862.76,350.52 C873.58,347.79 881.00,350.13 881.00,356.26 C881.00,358.29 881.94,360.37 883.66,362.17 C885.82,364.42 886.30,365.84 886.24,369.72 C886.18,373.22 886.70,375.08 888.19,376.68 C889.83,378.45 890.11,379.70 889.63,383.18 C887.20,400.93 887.02,405.38 888.64,407.85 C890.67,410.95 890.06,418.08 887.05,426.50 C882.95,437.93 882.62,439.82 884.00,444.01 C884.90,446.74 885.08,450.66 884.59,457.26 C883.77,468.43 884.83,472.70 887.99,471.01 C889.10,470.41 890.00,469.45 890.00,468.87 ZM 940.78 401.15 C941.07,400.29 940.59,399.93 939.45,400.15 C938.47,400.34 937.46,401.11 937.22,401.85 C936.93,402.71 937.41,403.07 938.55,402.85 C939.53,402.66 940.54,401.89 940.78,401.15 ZM 936.00 395.50 C936.00,394.67 935.33,394.00 934.50,394.00 C933.67,394.00 933.00,394.67 933.00,395.50 C933.00,396.33 933.67,397.00 934.50,397.00 C935.33,397.00 936.00,396.33 936.00,395.50 ZM 975.00 328.00 C975.00,326.67 974.33,326.00 973.00,326.00 C971.07,326.00 970.29,327.96 971.67,329.33 C973.04,330.71 975.00,329.93 975.00,328.00 ZM 939.00 327.00 C939.00,326.45 938.33,326.00 937.50,326.00 C936.67,326.00 936.00,326.45 936.00,327.00 C936.00,327.55 936.67,328.00 937.50,328.00 C938.33,328.00 939.00,327.55 939.00,327.00 ZM 868.32 299.75 C868.08,299.34 867.01,299.00 865.94,299.00 C863.52,299.00 863.40,301.56 865.75,302.88 C867.08,303.63 867.65,303.46 868.12,302.18 C868.47,301.26 868.55,300.16 868.32,299.75 ZM 905.82 268.25 C906.22,265.45 903.42,264.15 901.39,266.19 C899.38,268.19 900.68,271.19 903.38,270.80 C904.70,270.61 905.62,269.65 905.82,268.25 ZM 951.77 263.19 C951.99,262.52 951.25,262.00 950.08,262.00 C948.01,262.00 947.38,263.05 948.69,264.35 C949.61,265.28 951.28,264.65 951.77,263.19 ZM 462.36 499.49 C462.03,498.62 461.96,489.95 462.21,480.21 C462.69,461.65 463.57,457.41 467.74,453.71 C470.88,450.91 475.97,450.57 479.71,452.91 C484.89,456.16 486.10,462.19 485.77,483.09 L 485.50 500.50 L 474.23 500.78 C464.73,501.02 462.87,500.82 462.36,499.49 ZM 185.61 546.18 C185.33,545.72 185.75,536.84 186.54,526.43 C187.33,516.02 188.66,498.27 189.48,487.00 C190.31,475.73 191.66,457.62 192.49,446.78 C193.32,435.93 194.00,425.92 194.00,424.53 C194.00,423.07 194.57,422.00 195.35,422.00 C196.30,422.00 196.90,424.04 197.32,428.75 C204.14,503.73 207.33,543.69 206.65,545.46 C206.18,546.70 204.13,547.00 196.09,547.00 C190.61,547.00 185.89,546.63 185.61,546.18 ZM 918.25 399.33 C916.63,398.69 916.65,396.54 918.28,395.18 C919.93,393.82 921.58,394.95 921.53,397.41 C921.50,399.45 920.30,400.15 918.25,399.33 Z" fill="rgb(254,254,254)"/>
</g>
</svg>